<svg width="32" height="32" viewBox="0 0 32 32" fill="none" xmlns="http://www.w3.org/2000/svg">
<path fill-rule="evenodd" clip-rule="evenodd" d="M22.5602 8.56591C26.3212 16.3592 21.748 22.0016 18.8684 24.6037C17.8789 25.4904 16.8087 26.2923 15.6703 27H17.1194C18.0423 26.2947 18.8961 25.366 19.8283 24.6651C19.9027 24.6069 19.987 24.561 20.0775 24.5293C22.123 23.813 23.8856 22.5146 25.1246 20.8116C26.3636 19.1086 27.0184 17.0839 26.9996 15.0143C26.998 12.6139 26.1014 10.2915 24.4687 8.45858C22.8359 6.62562 20.5725 5.40041 18.0793 5C28.1948 14.5456 9.02508 15.7065 16.9948 25.1513C20.8204 21.8395 24.7061 16.1139 22.5602 8.57029" fill="#4579FF"/>
<path fill-rule="evenodd" clip-rule="evenodd" d="M15.1403 24.987C7.66368 15.6826 25.6555 14.5522 16.1604 5.12609C15.7851 5.06405 15.4067 5.02196 15.0269 5C12.3676 5 9.81724 6.05357 7.93682 7.92893C6.05641 9.80429 5 12.3478 5 15C5 17.6522 6.05641 20.1957 7.93682 22.0711C9.81724 23.9464 12.3676 25 15.0269 25L15.1403 24.987Z" fill="#1349D5"/>
</svg>
